<?xml version="1.0" standalone="no"?>
<!DOCTYPE svg PUBLIC "-//W3C//DTD SVG 20010904//EN"
 "http://www.w3.org/TR/2001/REC-SVG-20010904/DTD/svg10.dtd">
<svg version="1.0" xmlns="http://www.w3.org/2000/svg"
 width="238.000000pt" height="250.000000pt" viewBox="0 0 238.000000 250.000000"
 preserveAspectRatio="xMidYMid meet">

<g transform="translate(0.000000,250.000000) scale(0.100000,-0.100000)"
fill="#000000" stroke="none">
<path d="M484 2326 l-34 -34 0 -676 0 -676 29 -32 29 -33 677 -3 677 -2 34 34
34 34 0 677 0 677 -34 34 -34 34 -672 0 -672 0 -34 -34z m1376 -36 c19 -19 20
-33 20 -467 l0 -448 -116 123 c-64 67 -121 122 -127 122 -7 0 -71 -54 -142
-120 -72 -66 -133 -119 -137 -117 -4 1 -108 123 -231 272 -123 148 -230 271
-238 273 -8 1 -91 -96 -199 -233 l-185 -236 -3 408 c-2 406 -2 408 19 426 20
16 67 17 670 17 636 0 649 0 669 -20z"/>
<path d="M1381 2075 c-60 -51 -62 -132 -5 -186 20 -19 36 -24 79 -24 43 0 59
5 79 24 82 77 32 211 -79 211 -32 0 -51 -7 -74 -25z"/>
<path d="M527 693 c-4 -3 -7 -48 -7 -100 0 -86 2 -93 20 -93 17 0 19 8 22 73
l3 72 36 -70 c30 -56 42 -71 63 -73 l26 -3 0 100 c0 94 -1 101 -20 101 -18 0
-20 -7 -20 -71 l0 -71 -37 71 c-28 54 -42 71 -58 71 -12 0 -25 -3 -28 -7z"/>
<path d="M755 677 c-20 -16 -28 -35 -32 -68 -4 -38 -1 -50 22 -77 22 -27 34
-32 70 -32 36 0 48 5 69 31 79 93 -38 225 -129 146z m79 -13 c25 -10 40 -69
24 -101 -14 -30 -50 -42 -72 -23 -29 23 -24 102 7 122 15 9 21 10 41 2z"/>
<path d="M1000 601 l0 -101 26 0 25 0 -3 98 c-3 92 -4 97 -25 100 -23 3 -23 1
-23 -97z"/>
<path d="M1096 678 c-3 -13 -6 -58 -6 -100 0 -61 3 -78 14 -78 10 0 16 21 22
77 l7 77 21 -74 c28 -98 43 -98 76 0 l25 75 3 -77 c3 -70 5 -78 22 -78 23 0
25 28 14 139 -7 59 -8 62 -32 59 -21 -3 -29 -13 -48 -68 -12 -36 -24 -58 -27
-50 -2 8 -11 38 -19 65 -12 42 -18 51 -40 53 -19 2 -27 -2 -32 -20z"/>
<path d="M1387 693 c-5 -9 -57 -178 -57 -187 0 -3 9 -6 20 -6 13 0 22 9 26 25
5 20 12 25 39 25 27 0 34 -5 39 -25 4 -16 13 -25 26 -25 25 0 25 -3 -8 105
-25 81 -31 90 -54 93 -14 2 -28 0 -31 -5z m52 -105 c1 -5 -10 -8 -24 -8 -28 0
-30 4 -13 51 l11 33 13 -34 c7 -19 13 -38 13 -42z"/>
<path d="M1571 686 c-57 -32 -68 -111 -21 -157 26 -27 35 -30 82 -27 l53 3 3
53 3 52 -35 0 c-25 0 -36 -4 -36 -15 0 -8 7 -15 15 -15 9 0 15 -9 15 -25 0
-35 -41 -34 -69 1 -28 35 -26 59 5 90 21 22 31 25 60 19 31 -5 35 -4 32 12 -4
23 -72 29 -107 9z"/>
<path d="M1730 600 l0 -100 65 0 c47 0 64 4 63 13 -2 6 -21 14 -43 17 -35 4
-40 8 -40 30 0 22 5 25 38 28 53 5 51 32 -3 32 -33 0 -40 3 -40 20 0 21 7 23
53 20 21 -1 27 3 27 19 0 19 -6 21 -60 21 l-60 0 0 -100z"/>
<path d="M497 251 c-32 -107 -32 -111 -8 -111 12 0 21 9 25 25 5 20 13 25 36
25 23 0 33 -6 40 -25 6 -15 17 -25 30 -25 23 0 23 2 -15 123 -21 66 -25 72
-52 75 -29 3 -30 1 -56 -87z m63 40 c0 -5 3 -23 6 -40 6 -27 4 -31 -16 -31
-18 0 -21 4 -16 23 3 12 6 30 6 40 0 9 5 17 10 17 6 0 10 -4 10 -9z"/>
<path d="M643 328 c2 -7 17 -53 33 -101 26 -81 30 -88 53 -85 21 3 28 15 57
101 32 96 32 97 11 97 -18 0 -25 -10 -39 -60 -10 -32 -18 -66 -18 -75 0 -8 -4
-15 -10 -15 -5 0 -10 7 -10 15 0 8 -7 42 -17 75 -14 52 -19 60 -41 60 -15 0
-22 -5 -19 -12z"/>
<path d="M871 318 c-11 -31 -51 -163 -51 -172 0 -3 9 -6 19 -6 12 0 21 9 25
25 5 20 12 25 40 25 28 0 35 -5 40 -25 4 -16 13 -25 26 -25 25 0 25 -3 -8 105
-26 82 -30 90 -55 93 -21 3 -29 -2 -36 -20z m52 -90 c-2 -5 -13 -8 -24 -8 -18
0 -20 4 -14 33 4 17 10 36 13 41 6 11 31 -55 25 -66z"/>
<path d="M1030 240 c0 -93 1 -100 20 -100 19 0 20 7 20 100 0 93 -1 100 -20
100 -19 0 -20 -7 -20 -100z"/>
<path d="M1110 240 l0 -100 60 0 c53 0 60 2 60 20 0 17 -7 20 -40 20 l-40 0 0
80 c0 73 -2 80 -20 80 -19 0 -20 -7 -20 -100z"/>
<path d="M1285 255 c-14 -47 -28 -92 -31 -100 -4 -10 0 -15 15 -15 14 0 25 9
31 25 7 19 17 25 40 25 23 0 31 -5 36 -25 4 -18 13 -25 29 -25 l23 0 -24 78
c-13 42 -27 87 -30 100 -5 16 -14 22 -34 22 -27 0 -30 -4 -55 -85z m70 -2 c6
-29 4 -33 -14 -33 -22 0 -26 16 -15 58 8 28 20 18 29 -25z"/>
<path d="M1460 240 l0 -100 48 0 c60 0 92 21 92 60 0 17 -7 33 -17 38 -16 9
-16 11 0 27 38 38 1 75 -75 75 l-48 0 0 -100z m95 60 c9 -15 -14 -40 -36 -40
-14 0 -19 7 -19 25 0 20 5 25 24 25 14 0 28 -5 31 -10z m0 -100 c0 -20 -6 -26
-27 -28 -25 -3 -28 0 -28 28 0 28 3 31 28 28 21 -2 27 -8 27 -28z"/>
<path d="M1640 240 l0 -100 60 0 c53 0 60 2 60 20 0 17 -7 20 -40 20 l-40 0 0
80 c0 73 -2 80 -20 80 -19 0 -20 -7 -20 -100z"/>
<path d="M1790 240 l0 -100 66 0 c56 0 65 2 62 17 -2 12 -14 17 -43 17 -36 1
-40 4 -40 26 0 22 5 25 38 28 54 5 51 32 -4 32 -36 0 -40 2 -37 23 2 18 10 23
41 25 24 2 37 8 37 18 0 11 -14 14 -60 14 l-60 0 0 -100z"/>
</g>
</svg>
